<?xml version="1.0" encoding="UTF-8" standalone="no"?>
<svg
   version="1.1"
   id="svg7410"
   width="1066.6666"
   height="574.0777"
   sodipodi:docname="circuits.svg"
   inkscape:version="1.1.2 (0a00cf5339, 2022-02-04)"
   xmlns:inkscape="http://www.inkscape.org/namespaces/inkscape"
   xmlns:sodipodi="http://sodipodi.sourceforge.net/DTD/sodipodi-0.dtd"
   xmlns="http://www.w3.org/2000/svg"
   xmlns:svg="http://www.w3.org/2000/svg">
  <defs
     id="defs210" />
  <sodipodi:namedview
     id="namedview208"
     pagecolor="#ffffff"
     bordercolor="#666666"
     borderopacity="1.0"
     inkscape:pageshadow="2"
     inkscape:pageopacity="0.0"
     inkscape:pagecheckerboard="0"
     showgrid="false"
     inkscape:zoom="1.213125"
     inkscape:cx="532.92115"
     inkscape:cy="295.92992"
     inkscape:window-width="2279"
     inkscape:window-height="885"
     inkscape:window-x="0"
     inkscape:window-y="32"
     inkscape:window-maximized="1"
     inkscape:current-layer="svg7410" />
  <g
     transform="rotate(90 0 0) translate(0,-1066.6666)"
     id="g205">
    <!-- Début du contenu original de ton SVG (tout ce qui est entre <svg> et </svg>) -->
    <defs
       id="defs7414">
      <clipPath
         clipPathUnits="userSpaceOnUse"
         id="clipPath3168">
        <path
           d="M 0,0 H 1200 V 800 H 0 Z"
           id="path3166" />
      </clipPath>
    </defs>
    <defs
       id="defs9">
      <clipPath
         clipPathUnits="userSpaceOnUse"
         id="clipPath7">
        <path
           d="M 0,0 H 1200 V 800 H 0 Z"
           id="path5" />
      </clipPath>
    </defs>
    <g
       id="g7418"
       transform="matrix(1.3333333,0,0,-1.3333333,-544.83585,1066.6666)">
      <g
         id="g3162">
        <g
           id="g3164"
           clip-path="url(#clipPath3168)">
          <g
             id="g3170"
             transform="translate(678.345,135.0544)">
            <path
               d="m 0,0 c 0,2.373 -1.928,4.304 -4.301,4.304 -2.373,0 -4.304,-1.931 -4.304,-4.304 0,-2.373 1.931,-4.304 4.304,-4.304 C -1.928,-4.304 0,-2.373 0,0 m -10.124,0 c 0,3.21 2.613,5.823 5.823,5.823 3.209,0 5.82,-2.613 5.82,-5.823 0,-3.21 -2.611,-5.823 -5.82,-5.823 -3.21,0 -5.823,2.613 -5.823,5.823"
               style="fill: #ffffff; fill-opacity: 0.2; fill-rule: nonzero; stroke: none"
               id="path3172" />
          </g>
          <g
             id="g3174"
             transform="translate(647.8694,135.0544)">
            <path
               d="m 0,0 c 0,2.373 -1.928,4.304 -4.301,4.304 -2.373,0 -4.304,-1.931 -4.304,-4.304 0,-2.373 1.931,-4.304 4.304,-4.304 C -1.928,-4.304 0,-2.373 0,0 m -10.124,0 c 0,3.21 2.613,5.823 5.823,5.823 3.209,0 5.82,-2.613 5.82,-5.823 0,-3.21 -2.611,-5.823 -5.82,-5.823 -3.21,0 -5.823,2.613 -5.823,5.823"
               style="fill: #ffffff; fill-opacity: 0.2; fill-rule: nonzero; stroke: none"
               id="path3176" />
          </g>
          <g
             id="g3182"
             transform="translate(604.5617,91.7704)">
            <path
               d="m 0,0 c 0,2.373 -1.931,4.304 -4.304,4.304 -2.373,0 -4.304,-1.931 -4.304,-4.304 0,-2.373 1.931,-4.304 4.304,-4.304 C -1.931,-4.304 0,-2.373 0,0 m -10.127,0 c 0,3.21 2.613,5.823 5.823,5.823 3.209,0 5.823,-2.613 5.823,-5.823 0,-3.21 -2.614,-5.823 -5.823,-5.823 -3.21,0 -5.823,2.613 -5.823,5.823"
               style="fill: #ffffff; fill-opacity: 0.2; fill-rule: nonzero; stroke: none"
               id="path3184" />
          </g>
          <g
             id="g3186"
             transform="translate(535.4918,463.321)">
            <path
               d="m 0,0 47.49,47.49 v 49.43 l -17.59,17.59 2.148,2.148 18.48,-18.48 V 46.232 L 2.148,-2.148 Z"
               style="fill: #ffffff; fill-opacity: 0.2; fill-rule: nonzero; stroke: none"
               id="path3188" />
          </g>
          <g
             id="g3190"
             transform="translate(532.7213,374.6351)">
            <path
               d="m 0,0 v 64.084 l 70.574,70.573 v 61.26 h 3.037 V 133.4 L 3.037,62.826 V 0 Z"
               style="fill: #ffffff; fill-opacity: 0.2; fill-rule: nonzero; stroke: none"
               id="path3192" />
          </g>
          <g
             id="g3194"
             transform="translate(579.375,362.4852)">
            <path
               d="m 0,0 v 3.037 h 28.346 l 37.719,-37.719 v -23.92 l 37.206,-37.206 -2.148,-2.148 -38.095,38.096 v 23.921 L 27.088,0 Z"
               style="fill: #ffffff; fill-opacity: 0.2; fill-rule: nonzero; stroke: none"
               id="path3196" />
          </g>
          <g
             id="g3198"
             transform="translate(662.2114,311.1982)">
            <path
               d="M 0,0 2.148,2.148 31.716,-27.42 29.568,-29.568 Z"
               style="fill: #ffffff; fill-opacity: 0.2; fill-rule: nonzero; stroke: none"
               id="path3200" />
          </g>
          <g
             id="g3202"
             transform="translate(621.5199,386.1561)">
            <path
               d="M 0,0 V 66.314 H 3.037 V 1.258 l 67.644,-67.643 h 22.721 v -3.038 H 69.423 Z"
               style="fill: #ffffff; fill-opacity: 0.2; fill-rule: nonzero; stroke: none"
               id="path3204" />
          </g>
          <path
             d="m 733.147,262.059 h 63.407 v -3.037 h -63.407 z"
             style="fill: #ffffff; fill-opacity: 0.2; fill-rule: nonzero; stroke: none"
             id="path3206" />
          <g
             id="g3208"
             transform="translate(696.4126,245.2933)">
            <path
               d="M 0,0 V 17.299 L 14.398,31.698 16.546,29.55 3.037,16.042 V 1.258 l 80.256,-80.256 v -74.525 h -3.037 v 73.267 z"
               style="fill: #ffffff; fill-opacity: 0.2; fill-rule: nonzero; stroke: none"
               id="path3210" />
          </g>
          <g
             id="g3212"
             transform="translate(683.4737,237.2547)">
            <path
               d="M 0,0 2.148,2.148 71.25,-66.955 69.102,-69.103 Z"
               style="fill: #ffffff; fill-opacity: 0.2; fill-rule: nonzero; stroke: none"
               id="path3214" />
          </g>
          <g
             id="g3216"
             transform="translate(584.5007,299.6475)">
            <path
               d="m 0,0 v 3.037 h 32.902 l 53.096,-53.096 v -32.143 h -3.037 v 30.885 L 31.644,0 Z"
               style="fill: #ffffff; fill-opacity: 0.2; fill-rule: nonzero; stroke: none"
               id="path3218" />
          </g>
          <g
             id="g3220"
             transform="translate(554.6955,354.2626)">
            <path
               d="m 0,0 v 66.563 l 70.829,70.829 2.148,-2.147 L 3.037,65.306 V 1.258 l 22.271,-22.271 h 33.163 v -3.038 h -34.42 z"
               style="fill: #ffffff; fill-opacity: 0.2; fill-rule: nonzero; stroke: none"
               id="path3222" />
          </g>
          <path
             d="m 601.397,433.486 h 3.037 v -51.637 h -3.037 z"
             style="fill: #ffffff; fill-opacity: 0.2; fill-rule: nonzero; stroke: none"
             id="path3224" />
          <g
             id="g3226"
             transform="translate(585.8948,629.848)">
            <path
               d="m 0,0 2.148,2.148 36.704,-36.705 v -82.071 h -3.037 v 80.813 z"
               style="fill: #ffffff; fill-opacity: 0.2; fill-rule: nonzero; stroke: none"
               id="path3228" />
          </g>
          <g
             id="g3230"
             transform="translate(652.2565,452.4169)">
            <path
               d="m 0,0 55.357,55.357 v 61.675 l -22.052,22.051 2.148,2.148 22.941,-22.942 V 54.099 L 2.148,-2.148 Z"
               style="fill: #ffffff; fill-opacity: 0.2; fill-rule: nonzero; stroke: none"
               id="path3232" />
          </g>
          <g
             id="g3234"
             transform="translate(651.8531,385.3611)">
            <path
               d="m 0,0 v 36.942 l 94.203,94.203 v 25.059 l 21.328,21.328 2.147,-2.148 -20.437,-20.437 V 129.888 L 3.037,35.684 V 0 Z"
               style="fill: #ffffff; fill-opacity: 0.2; fill-rule: nonzero; stroke: none"
               id="path3236" />
          </g>
          <g
             id="g3238"
             transform="translate(676.5504,376.9132)">
            <path
               d="m 0,0 v 37.458 l 87.624,87.624 v 28.69 h 3.037 V 123.824 L 3.037,36.201 V 3.037 H 16.303 V 0 Z"
               style="fill: #ffffff; fill-opacity: 0.2; fill-rule: nonzero; stroke: none"
               id="path3240" />
          </g>
          <g
             id="g3242"
             transform="translate(642.0496,527.8376)">
            <path
               d="m 0,0 v 81.071 l 25.555,25.555 2.147,-2.148 L 3.037,79.814 V 0 Z"
               style="fill: #ffffff; fill-opacity: 0.2; fill-rule: nonzero; stroke: none"
               id="path3244" />
          </g>
          <g
             id="g3246"
             transform="translate(575.9103,51.1442)">
            <path
               d="m 0,0 v 38.265 l 49.311,49.312 v 102.265 h 3.038 V 86.319 L 3.037,37.007 V 0 Z"
               style="fill: #ffffff; fill-opacity: 0.2; fill-rule: nonzero; stroke: none"
               id="path3248" />
          </g>
          <g
             id="g3250"
             transform="translate(645.1167,200.547)">
            <path
               d="m 0,0 0.703,1.05 v 1.801 c 0.833,0 1.78,0 50.065,-49.436 l 0.433,-0.442 v -30.615 h -3.037 v 29.375 C 29.808,-29.476 2.142,-1.433 0,0"
               style="fill: #ffffff; fill-opacity: 0.2; fill-rule: nonzero; stroke: none"
               id="path3252" />
          </g>
          <g
             id="g3258"
             transform="translate(521.3486,298.3838)">
            <path
               d="m 0,0 2.148,2.148 67.079,-67.08 V -154.14 H 66.19 v 87.95 z"
               style="fill: #ffffff; fill-opacity: 0.2; fill-rule: nonzero; stroke: none"
               id="path3260" />
          </g>
          <g
             id="g3272"
             transform="translate(445.9813,80.5045)">
            <path
               d="m 0,0 92.767,92.768 v 48.578 h 3.038 V 91.51 L 2.148,-2.148 Z"
               style="fill: #ffffff; fill-opacity: 0.2; fill-rule: nonzero; stroke: none"
               id="path3274" />
          </g>
          <g
             id="g3276"
             transform="translate(515.2084,367.1719)">
            <path
               d="M 0,0 V 54.544 H 3.037 V 1.258 l 40.182,-40.182 -2.148,-2.147 z"
               style="fill: #ffffff; fill-opacity: 0.2; fill-rule: nonzero; stroke: none"
               id="path3278" />
          </g>
          <g
             id="g3282"
             transform="translate(714.3527,398.9348)">
            <path
               d="M 0,0 V 25.878 L 44.298,70.176 46.446,68.029 3.037,24.62 V 0 Z"
               style="fill: #ffffff; fill-opacity: 0.2; fill-rule: nonzero; stroke: none"
               id="path3284" />
          </g>
          <g
             id="g3286"
             transform="translate(568.5659,614.9039)">
            <path
               d="m 0,0 v 32.594 l 73.178,73.178 v 29.846 h 3.038 V 104.514 L 3.037,31.336 V 1.258 L 15.3,-11.005 13.152,-13.153 Z"
               style="fill: #ffffff; fill-opacity: 0.2; fill-rule: nonzero; stroke: none"
               id="path3288" />
          </g>
          <g
             id="g3404"
             transform="translate(757.1947,164.91)">
            <path
               d="M 0,0 C 0,1.955 -1.59,3.545 -3.545,3.545 -5.5,3.545 -7.089,1.955 -7.089,0 c 0,-1.955 1.589,-3.545 3.544,-3.545 C -1.59,-3.545 0,-1.955 0,0 m -10.127,0 c 0,3.631 2.952,6.582 6.582,6.582 3.631,0 6.582,-2.951 6.582,-6.582 0,-3.631 -2.951,-6.582 -6.582,-6.582 -3.63,0 -6.582,2.951 -6.582,6.582"
               style="fill: #ffffff; fill-opacity: 0.2; fill-rule: nonzero; stroke: none"
               id="path3406" />
          </g>
          <g
             id="g3408"
             transform="translate(735.3629,345.3994)">
            <path
               d="M 0,0 C 0,1.955 -1.59,3.545 -3.545,3.545 -5.5,3.545 -7.089,1.955 -7.089,0 c 0,-1.955 1.589,-3.545 3.544,-3.545 C -1.59,-3.545 0,-1.955 0,0 m -10.127,0 c 0,3.631 2.952,6.582 6.582,6.582 3.631,0 6.582,-2.951 6.582,-6.582 0,-3.631 -2.951,-6.582 -6.582,-6.582 -3.63,0 -6.582,2.951 -6.582,6.582"
               style="fill: #ffffff; fill-opacity: 0.2; fill-rule: nonzero; stroke: none"
               id="path3410" />
          </g>
          <g
             id="g3412"
             transform="translate(699.8149,378.4319)">
            <path
               d="m 0,0 c 0,1.955 -1.59,3.545 -3.545,3.545 -1.952,0 -3.541,-1.59 -3.541,-3.545 0,-1.955 1.589,-3.545 3.541,-3.545 C -1.59,-3.545 0,-1.955 0,0 m -10.124,0 c 0,3.631 2.952,6.582 6.579,6.582 3.631,0 6.582,-2.951 6.582,-6.582 0,-3.631 -2.951,-6.582 -6.582,-6.582 -3.627,0 -6.579,2.951 -6.579,6.582"
               style="fill: #ffffff; fill-opacity: 0.2; fill-rule: nonzero; stroke: none"
               id="path3414" />
          </g>
          <g
             id="g3416"
             transform="translate(768.3954,437.6626)">
            <path
               d="M 0,0 C 0,1.955 -1.59,3.545 -3.545,3.545 -5.5,3.545 -7.089,1.955 -7.089,0 c 0,-1.955 1.589,-3.545 3.544,-3.545 C -1.59,-3.545 0,-1.955 0,0 m -10.127,0 c 0,3.631 2.952,6.582 6.582,6.582 3.631,0 6.582,-2.951 6.582,-6.582 0,-3.631 -2.951,-6.582 -6.582,-6.582 -3.63,0 -6.582,2.951 -6.582,6.582"
               style="fill: #ffffff; fill-opacity: 0.2; fill-rule: nonzero; stroke: none"
               id="path3418" />
          </g>
          <g
             id="g3420"
             transform="translate(719.4161,394.6634)">
            <path
               d="M 0,0 C 0,1.952 -1.59,3.542 -3.545,3.542 -5.5,3.542 -7.089,1.952 -7.089,0 c 0,-1.955 1.589,-3.545 3.544,-3.545 C -1.59,-3.545 0,-1.955 0,0 m -10.127,0 c 0,3.628 2.952,6.579 6.582,6.579 3.631,0 6.582,-2.951 6.582,-6.579 0,-3.631 -2.951,-6.582 -6.582,-6.582 -3.63,0 -6.582,2.951 -6.582,6.582"
               style="fill: #ffffff; fill-opacity: 0.2; fill-rule: nonzero; stroke: none"
               id="path3422" />
          </g>
          <g
             id="g3424"
             transform="translate(765.6723,471.3596)">
            <path
               d="m 0,0 c 0,1.955 -1.59,3.545 -3.542,3.545 -1.955,0 -3.544,-1.59 -3.544,-3.545 0,-1.952 1.589,-3.542 3.544,-3.542 C -1.59,-3.542 0,-1.952 0,0 m -10.124,0 c 0,3.631 2.952,6.582 6.582,6.582 3.628,0 6.579,-2.951 6.579,-6.582 0,-3.628 -2.951,-6.579 -6.579,-6.579 -3.63,0 -6.582,2.951 -6.582,6.579"
               style="fill: #ffffff; fill-opacity: 0.2; fill-rule: nonzero; stroke: none"
               id="path3426" />
          </g>
          <g
             id="g3428"
             transform="translate(769.2378,537.0953)">
            <path
               d="M 0,0 C 0,1.955 -1.59,3.545 -3.545,3.545 -5.5,3.545 -7.089,1.955 -7.089,0 c 0,-1.952 1.589,-3.542 3.544,-3.542 C -1.59,-3.542 0,-1.952 0,0 m -10.127,0 c 0,3.631 2.952,6.582 6.582,6.582 3.631,0 6.582,-2.951 6.582,-6.582 0,-3.628 -2.951,-6.579 -6.582,-6.579 -3.63,0 -6.582,2.951 -6.582,6.579"
               style="fill: #ffffff; fill-opacity: 0.2; fill-rule: nonzero; stroke: none"
               id="path3430" />
          </g>
          <g
             id="g3432"
             transform="translate(785.671,487.7809)">
            <path
               d="m 0,0 c 0,1.955 -1.59,3.545 -3.545,3.545 -1.954,0 -3.544,-1.59 -3.544,-3.545 0,-1.955 1.59,-3.545 3.544,-3.545 C -1.59,-3.545 0,-1.955 0,0 m -10.127,0 c 0,3.631 2.952,6.582 6.582,6.582 3.631,0 6.582,-2.951 6.582,-6.582 0,-3.631 -2.951,-6.582 -6.582,-6.582 -3.63,0 -6.582,2.951 -6.582,6.582"
               style="fill: #ffffff; fill-opacity: 0.2; fill-rule: nonzero; stroke: none"
               id="path3434" />
          </g>
          <g
             id="g3436"
             transform="translate(626.7732,509.0343)">
            <path
               d="M 0,0 C 0,1.952 -1.59,3.542 -3.545,3.542 -5.5,3.542 -7.089,1.952 -7.089,0 c 0,-1.955 1.589,-3.545 3.544,-3.545 C -1.59,-3.545 0,-1.955 0,0 m -10.127,0 c 0,3.628 2.952,6.579 6.582,6.579 3.631,0 6.582,-2.951 6.582,-6.579 0,-3.631 -2.951,-6.582 -6.582,-6.582 -3.63,0 -6.582,2.951 -6.582,6.582"
               style="fill: #ffffff; fill-opacity: 0.2; fill-rule: nonzero; stroke: none"
               id="path3438" />
          </g>
          <g
             id="g3440"
             transform="translate(503.1356,468.0374)">
            <path
               d="m 0,0 c 0,1.955 -1.59,3.545 -3.545,3.545 -1.954,0 -3.544,-1.59 -3.544,-3.545 0,-1.955 1.59,-3.545 3.544,-3.545 C -1.59,-3.545 0,-1.955 0,0 m -10.127,0 c 0,3.631 2.952,6.582 6.582,6.582 3.631,0 6.582,-2.951 6.582,-6.582 0,-3.631 -2.951,-6.582 -6.582,-6.582 -3.63,0 -6.582,2.951 -6.582,6.582"
               style="fill: #ffffff; fill-opacity: 0.2; fill-rule: nonzero; stroke: none"
               id="path3442" />
          </g>
          <g
             id="g3444"
             transform="translate(537.7847,370.3488)">
            <path
               d="m 0,0 c 0,1.952 -1.59,3.542 -3.545,3.542 -1.954,0 -3.544,-1.59 -3.544,-3.542 0,-1.955 1.59,-3.545 3.544,-3.545 C -1.59,-3.545 0,-1.955 0,0 m -10.127,0 c 0,3.628 2.952,6.579 6.582,6.579 3.631,0 6.582,-2.951 6.582,-6.579 0,-3.631 -2.951,-6.582 -6.582,-6.582 -3.63,0 -6.582,2.951 -6.582,6.582"
               style="fill: #ffffff; fill-opacity: 0.2; fill-rule: nonzero; stroke: none"
               id="path3446" />
          </g>
          <g
             id="g3448"
             transform="translate(608.3585,575.5502)">
            <path
               d="M 0,0 C 0,1.955 -1.59,3.545 -3.545,3.545 -5.5,3.545 -7.089,1.955 -7.089,0 c 0,-1.952 1.589,-3.542 3.544,-3.542 C -1.59,-3.542 0,-1.952 0,0 m -10.127,0 c 0,3.631 2.952,6.582 6.582,6.582 3.631,0 6.582,-2.951 6.582,-6.582 0,-3.628 -2.951,-6.579 -6.582,-6.579 -3.63,0 -6.582,2.951 -6.582,6.579"
               style="fill: #ffffff; fill-opacity: 0.2; fill-rule: nonzero; stroke: none"
               id="path3450" />
          </g>
          <g
             id="g3452"
             transform="translate(588.9946,599.5979)">
            <path
               d="M 0,0 C 0,1.955 -1.59,3.545 -3.545,3.545 -5.5,3.545 -7.089,1.955 -7.089,0 c 0,-1.955 1.589,-3.545 3.544,-3.545 C -1.59,-3.545 0,-1.955 0,0 m -10.127,0 c 0,3.631 2.952,6.582 6.582,6.582 3.631,0 6.582,-2.951 6.582,-6.582 0,-3.631 -2.951,-6.582 -6.582,-6.582 -3.63,0 -6.582,2.951 -6.582,6.582"
               style="fill: #ffffff; fill-opacity: 0.2; fill-rule: nonzero; stroke: none"
               id="path3454" />
          </g>
          <g
             id="g3456"
             transform="translate(568.0082,582.1324)">
            <path
               d="m 0,0 c 0,1.955 -1.59,3.545 -3.545,3.545 -1.952,0 -3.541,-1.59 -3.541,-3.545 0,-1.955 1.589,-3.545 3.541,-3.545 C -1.59,-3.545 0,-1.955 0,0 m -10.124,0 c 0,3.631 2.952,6.582 6.579,6.582 3.631,0 6.582,-2.951 6.582,-6.582 0,-3.631 -2.951,-6.582 -6.582,-6.582 -3.627,0 -6.579,2.951 -6.579,6.582"
               style="fill: #ffffff; fill-opacity: 0.2; fill-rule: nonzero; stroke: none"
               id="path3458" />
          </g>
          <g
             id="g3460"
             transform="translate(548.7481,557.6368)">
            <path
               d="m 0,0 c 0,1.955 -1.59,3.545 -3.545,3.545 -1.954,0 -3.544,-1.59 -3.544,-3.545 0,-1.952 1.59,-3.542 3.544,-3.542 C -1.59,-3.542 0,-1.952 0,0 m -10.127,0 c 0,3.631 2.952,6.582 6.582,6.582 3.631,0 6.582,-2.951 6.582,-6.582 0,-3.628 -2.951,-6.579 -6.582,-6.579 -3.63,0 -6.582,2.951 -6.582,6.579"
               style="fill: #ffffff; fill-opacity: 0.2; fill-rule: nonzero; stroke: none"
               id="path3462" />
          </g>
          <g
             id="g3464"
             transform="translate(537.7847,459.2156)">
            <path
               d="m 0,0 c 0,1.955 -1.59,3.545 -3.545,3.545 -1.954,0 -3.544,-1.59 -3.544,-3.545 0,-1.952 1.59,-3.542 3.544,-3.542 C -1.59,-3.542 0,-1.952 0,0 m -10.127,0 c 0,3.631 2.952,6.582 6.582,6.582 3.631,0 6.582,-2.951 6.582,-6.582 0,-3.628 -2.951,-6.579 -6.582,-6.579 -3.63,0 -6.582,2.951 -6.582,6.579"
               style="fill: #ffffff; fill-opacity: 0.2; fill-rule: nonzero; stroke: none"
               id="path3466" />
          </g>
          <g
             id="g3468"
             transform="translate(520.2718,426.7793)">
            <path
               d="m 0,0 c 0,1.952 -1.59,3.542 -3.545,3.542 -1.954,0 -3.544,-1.59 -3.544,-3.542 0,-1.955 1.59,-3.545 3.544,-3.545 C -1.59,-3.545 0,-1.955 0,0 m -10.127,0 c 0,3.628 2.952,6.579 6.582,6.579 3.631,0 6.582,-2.951 6.582,-6.579 0,-3.631 -2.951,-6.582 -6.582,-6.582 -3.63,0 -6.582,2.951 -6.582,6.582"
               style="fill: #ffffff; fill-opacity: 0.2; fill-rule: nonzero; stroke: none"
               id="path3470" />
          </g>
          <g
             id="g3472"
             transform="translate(564.0779,324.5168)">
            <path
               d="M 0,0 C 0,1.955 -1.59,3.545 -3.545,3.545 -5.5,3.545 -7.089,1.955 -7.089,0 c 0,-1.955 1.589,-3.545 3.544,-3.545 C -1.59,-3.545 0,-1.955 0,0 m -10.127,0 c 0,3.631 2.952,6.582 6.582,6.582 3.631,0 6.582,-2.951 6.582,-6.582 0,-3.631 -2.951,-6.582 -6.582,-6.582 -3.63,0 -6.582,2.951 -6.582,6.582"
               style="fill: #ffffff; fill-opacity: 0.2; fill-rule: nonzero; stroke: none"
               id="path3474" />
          </g>
          <g
             id="g3476"
             transform="translate(584.4384,301.1662)">
            <path
               d="M 0,0 C 0,1.955 -1.59,3.545 -3.545,3.545 -5.5,3.545 -7.089,1.955 -7.089,0 c 0,-1.955 1.589,-3.545 3.544,-3.545 C -1.59,-3.545 0,-1.955 0,0 m -10.127,0 c 0,3.631 2.952,6.582 6.582,6.582 3.631,0 6.582,-2.951 6.582,-6.582 0,-3.631 -2.951,-6.582 -6.582,-6.582 -3.63,0 -6.582,2.951 -6.582,6.582"
               style="fill: #ffffff; fill-opacity: 0.2; fill-rule: nonzero; stroke: none"
               id="path3478" />
          </g>
          <g
             id="g3480"
             transform="translate(537.4525,313.1885)">
            <path
               d="M 0,0 C 0,1.955 -1.59,3.545 -3.545,3.545 -5.5,3.545 -7.089,1.955 -7.089,0 c 0,-1.952 1.589,-3.542 3.544,-3.542 C -1.59,-3.542 0,-1.952 0,0 m -10.127,0 c 0,3.631 2.952,6.582 6.582,6.582 3.631,0 6.582,-2.951 6.582,-6.582 0,-3.628 -2.951,-6.579 -6.582,-6.579 -3.63,0 -6.582,2.951 -6.582,6.579"
               style="fill: #ffffff; fill-opacity: 0.2; fill-rule: nonzero; stroke: none"
               id="path3482" />
          </g>
          <g
             id="g3484"
             transform="translate(510.225,288.954)">
            <path
               d="m 0,0 c 0,1.952 -1.59,3.542 -3.545,3.542 -1.952,0 -3.541,-1.59 -3.541,-3.542 0,-1.955 1.589,-3.545 3.541,-3.545 C -1.59,-3.545 0,-1.955 0,0 m -10.124,0 c 0,3.628 2.952,6.579 6.579,6.579 3.631,0 6.583,-2.951 6.583,-6.579 0,-3.631 -2.952,-6.582 -6.583,-6.582 -3.627,0 -6.579,2.951 -6.579,6.582"
               style="fill: #ffffff; fill-opacity: 0.2; fill-rule: nonzero; stroke: none"
               id="path3486" />
          </g>
          <g
             id="g3488"
             transform="translate(522.7397,303.0646)">
            <path
               d="m 0,0 c 0,1.955 -1.59,3.545 -3.545,3.545 -1.954,0 -3.544,-1.59 -3.544,-3.545 0,-1.955 1.59,-3.545 3.544,-3.545 C -1.59,-3.545 0,-1.955 0,0 m -10.127,0 c 0,3.631 2.952,6.582 6.582,6.582 3.631,0 6.582,-2.951 6.582,-6.582 0,-3.631 -2.951,-6.582 -6.582,-6.582 -3.63,0 -6.582,2.951 -6.582,6.582"
               style="fill: #ffffff; fill-opacity: 0.2; fill-rule: nonzero; stroke: none"
               id="path3490" />
          </g>
          <g
             id="g3492"
             transform="translate(621.7098,331.7308)">
            <path
               d="m 0,0 c 0,1.955 -1.59,3.545 -3.545,3.545 -1.952,0 -3.541,-1.59 -3.541,-3.545 0,-1.955 1.589,-3.545 3.541,-3.545 C -1.59,-3.545 0,-1.955 0,0 m -10.124,0 c 0,3.631 2.952,6.582 6.579,6.582 3.631,0 6.582,-2.951 6.582,-6.582 0,-3.631 -2.951,-6.582 -6.582,-6.582 -3.627,0 -6.579,2.951 -6.579,6.582"
               style="fill: #ffffff; fill-opacity: 0.2; fill-rule: nonzero; stroke: none"
               id="path3494" />
          </g>
          <g
             id="g3496"
             transform="translate(663.7064,315.1967)">
            <path
               d="m 0,0 c 0,1.952 -1.59,3.542 -3.545,3.542 -1.952,0 -3.541,-1.59 -3.541,-3.542 0,-1.955 1.589,-3.545 3.541,-3.545 C -1.59,-3.545 0,-1.955 0,0 m -10.124,0 c 0,3.628 2.952,6.579 6.579,6.579 3.631,0 6.582,-2.951 6.582,-6.579 0,-3.631 -2.951,-6.582 -6.582,-6.582 -3.627,0 -6.579,2.951 -6.579,6.582"
               style="fill: #ffffff; fill-opacity: 0.2; fill-rule: nonzero; stroke: none"
               id="path3498" />
          </g>
          <g
             id="g3500"
             transform="translate(688.2167,262.7558)">
            <path
               d="m 0,0 c 0,1.952 -1.59,3.542 -3.542,3.542 -1.955,0 -3.544,-1.59 -3.544,-3.542 0,-1.955 1.589,-3.545 3.544,-3.545 C -1.59,-3.545 0,-1.955 0,0 m -10.124,0 c 0,3.628 2.952,6.579 6.582,6.579 3.628,0 6.579,-2.951 6.579,-6.579 0,-3.631 -2.951,-6.582 -6.579,-6.582 -3.63,0 -6.582,2.951 -6.582,6.582"
               style="fill: #ffffff; fill-opacity: 0.2; fill-rule: nonzero; stroke: none"
               id="path3502" />
          </g>
          <g
             id="g3504"
             transform="translate(685.9348,241.1173)">
            <path
               d="m 0,0 c 0,1.952 -1.59,3.542 -3.542,3.542 -1.955,0 -3.544,-1.59 -3.544,-3.542 0,-1.955 1.589,-3.545 3.544,-3.545 C -1.59,-3.545 0,-1.955 0,0 m -10.124,0 c 0,3.628 2.952,6.579 6.582,6.579 3.628,0 6.579,-2.951 6.579,-6.579 0,-3.631 -2.951,-6.582 -6.579,-6.582 -3.63,0 -6.582,2.951 -6.582,6.582"
               style="fill: #ffffff; fill-opacity: 0.2; fill-rule: nonzero; stroke: none"
               id="path3506" />
          </g>
          <g
             id="g3508"
             transform="translate(699.8149,279.4055)">
            <path
               d="m 0,0 c 0,1.955 -1.59,3.545 -3.545,3.545 -1.952,0 -3.541,-1.59 -3.541,-3.545 0,-1.955 1.589,-3.545 3.541,-3.545 C -1.59,-3.545 0,-1.955 0,0 m -10.124,0 c 0,3.631 2.952,6.582 6.579,6.582 3.631,0 6.582,-2.951 6.582,-6.582 0,-3.631 -2.951,-6.582 -6.582,-6.582 -3.627,0 -6.579,2.951 -6.579,6.582"
               style="fill: #ffffff; fill-opacity: 0.2; fill-rule: nonzero; stroke: none"
               id="path3510" />
          </g>
          <g
             id="g3512"
             transform="translate(718.4669,279.4055)">
            <path
               d="M 0,0 C 0,1.955 -1.59,3.545 -3.545,3.545 -5.5,3.545 -7.089,1.955 -7.089,0 c 0,-1.955 1.589,-3.545 3.544,-3.545 C -1.59,-3.545 0,-1.955 0,0 m -10.127,0 c 0,3.631 2.952,6.582 6.582,6.582 3.631,0 6.582,-2.951 6.582,-6.582 0,-3.631 -2.951,-6.582 -6.582,-6.582 -3.63,0 -6.582,2.951 -6.582,6.582"
               style="fill: #ffffff; fill-opacity: 0.2; fill-rule: nonzero; stroke: none"
               id="path3514" />
          </g>
          <g
             id="g3516"
             transform="translate(731.6283,260.54)">
            <path
               d="m 0,0 c 0,1.955 -1.59,3.545 -3.545,3.545 -1.952,0 -3.541,-1.59 -3.541,-3.545 0,-1.955 1.589,-3.545 3.541,-3.545 C -1.59,-3.545 0,-1.955 0,0 m -10.124,0 c 0,3.631 2.952,6.582 6.579,6.582 3.631,0 6.582,-2.951 6.582,-6.582 0,-3.631 -2.951,-6.582 -6.582,-6.582 -3.627,0 -6.579,2.951 -6.579,6.582"
               style="fill: #ffffff; fill-opacity: 0.2; fill-rule: nonzero; stroke: none"
               id="path3518" />
          </g>
          <g
             id="g3520"
             transform="translate(805.1595,260.54)">
            <path
               d="m 0,0 c 0,1.955 -1.59,3.545 -3.542,3.545 -1.955,0 -3.544,-1.59 -3.544,-3.545 0,-1.955 1.589,-3.545 3.544,-3.545 C -1.59,-3.545 0,-1.955 0,0 m -10.124,0 c 0,3.631 2.952,6.582 6.582,6.582 3.628,0 6.579,-2.951 6.579,-6.582 0,-3.631 -2.951,-6.582 -6.579,-6.582 -3.63,0 -6.582,2.951 -6.582,6.582"
               style="fill: #ffffff; fill-opacity: 0.2; fill-rule: nonzero; stroke: none"
               id="path3522" />
          </g>
         
          <g
             id="g3530"
             transform="translate(714.3527,103.5406)">
            <path
               d="m 0,0 c 0,1.955 -1.59,3.545 -3.545,3.545 -1.952,0 -3.541,-1.59 -3.541,-3.545 0,-1.955 1.589,-3.545 3.541,-3.545 C -1.59,-3.545 0,-1.955 0,0 m -10.124,0 c 0,3.631 2.952,6.582 6.579,6.582 3.631,0 6.582,-2.951 6.582,-6.582 0,-3.631 -2.951,-6.582 -6.582,-6.582 -3.627,0 -6.579,2.951 -6.579,6.582"
               style="fill: #ffffff; fill-opacity: 0.2; fill-rule: nonzero; stroke: none"
               id="path3532" />
          </g>
          <g
             id="g3534"
             transform="translate(698.3436,117.8411)">
            <path
               d="m 0,0 c 0,1.955 -1.59,3.545 -3.545,3.545 -1.954,0 -3.544,-1.59 -3.544,-3.545 0,-1.952 1.59,-3.542 3.544,-3.542 C -1.59,-3.542 0,-1.952 0,0 m -10.127,0 c 0,3.631 2.952,6.582 6.582,6.582 3.631,0 6.582,-2.951 6.582,-6.582 0,-3.628 -2.951,-6.579 -6.582,-6.579 -3.63,0 -6.582,2.951 -6.582,6.579"
               style="fill: #ffffff; fill-opacity: 0.2; fill-rule: nonzero; stroke: none"
               id="path3536" />
          </g>
          <g
             id="g3538"
             transform="translate(645.1523,203.7772)">
            <path
               d="m 0,0 c 0,1.955 -1.59,3.545 -3.545,3.545 -1.952,0 -3.541,-1.59 -3.541,-3.545 0,-1.955 1.589,-3.545 3.541,-3.545 C -1.59,-3.545 0,-1.955 0,0 m -10.124,0 c 0,3.631 2.952,6.582 6.579,6.582 3.631,0 6.582,-2.951 6.582,-6.582 0,-3.631 -2.951,-6.582 -6.582,-6.582 -3.627,0 -6.579,2.951 -6.579,6.582"
               style="fill: #ffffff; fill-opacity: 0.2; fill-rule: nonzero; stroke: none"
               id="path3540" />
          </g>
          <g
             id="g3542"
             transform="translate(630.1429,246.0497)">
            <path
               d="m 0,0 c 0,1.952 -1.59,3.542 -3.545,3.542 -1.954,0 -3.544,-1.59 -3.544,-3.542 0,-1.955 1.59,-3.545 3.544,-3.545 C -1.59,-3.545 0,-1.955 0,0 m -10.127,0 c 0,3.628 2.952,6.579 6.582,6.579 3.631,0 6.582,-2.951 6.582,-6.579 0,-3.631 -2.951,-6.582 -6.582,-6.582 -3.63,0 -6.582,2.951 -6.582,6.582"
               style="fill: #ffffff; fill-opacity: 0.2; fill-rule: nonzero; stroke: none"
               id="path3544" />
          </g>
          <g
             id="g3546"
             transform="translate(672.5251,213.9012)">
            <path
               d="M 0,0 C 0,1.955 -1.59,3.545 -3.545,3.545 -5.5,3.545 -7.089,1.955 -7.089,0 c 0,-1.952 1.589,-3.542 3.544,-3.542 C -1.59,-3.542 0,-1.952 0,0 m -10.127,0 c 0,3.631 2.952,6.582 6.582,6.582 3.631,0 6.582,-2.951 6.582,-6.582 0,-3.628 -2.951,-6.579 -6.582,-6.579 -3.63,0 -6.582,2.951 -6.582,6.579"
               style="fill: #ffffff; fill-opacity: 0.2; fill-rule: nonzero; stroke: none"
               id="path3548" />
          </g>
          <g
             id="g3550"
             transform="translate(592.6016,140.1179)">
            <path
               d="M 0,0 C 0,1.952 -1.59,3.542 -3.545,3.542 -5.5,3.542 -7.089,1.952 -7.089,0 c 0,-1.955 1.589,-3.545 3.544,-3.545 C -1.59,-3.545 0,-1.955 0,0 m -10.127,0 c 0,3.628 2.952,6.579 6.582,6.579 3.631,0 6.582,-2.951 6.582,-6.579 0,-3.631 -2.951,-6.582 -6.582,-6.582 -3.63,0 -6.582,2.951 -6.582,6.582"
               style="fill: #ffffff; fill-opacity: 0.2; fill-rule: nonzero; stroke: none"
               id="path3552" />
          </g>
          <g
             id="g3554"
             transform="translate(580.9738,46.0808)">
            <path
               d="M 0,0 C 0,1.955 -1.59,3.545 -3.545,3.545 -5.5,3.545 -7.089,1.955 -7.089,0 c 0,-1.952 1.589,-3.542 3.544,-3.542 C -1.59,-3.542 0,-1.952 0,0 m -10.127,0 c 0,3.631 2.952,6.582 6.582,6.582 3.631,0 6.582,-2.951 6.582,-6.582 0,-3.628 -2.951,-6.579 -6.582,-6.579 -3.63,0 -6.582,2.951 -6.582,6.579"
               style="fill: #ffffff; fill-opacity: 0.2; fill-rule: nonzero; stroke: none"
               id="path3556" />
          </g>
          <g
             id="g3558"
             transform="translate(555.5825,117.8411)">
            <path
               d="M 0,0 C 0,1.955 -1.59,3.545 -3.545,3.545 -5.5,3.545 -7.089,1.955 -7.089,0 c 0,-1.952 1.589,-3.542 3.544,-3.542 C -1.59,-3.542 0,-1.952 0,0 m -10.127,0 c 0,3.631 2.952,6.582 6.582,6.582 3.631,0 6.582,-2.951 6.582,-6.582 0,-3.628 -2.951,-6.579 -6.582,-6.579 -3.63,0 -6.582,2.951 -6.582,6.579"
               style="fill: #ffffff; fill-opacity: 0.2; fill-rule: nonzero; stroke: none"
               id="path3560" />
          </g>
          <g
             id="g3562"
             transform="translate(543.8122,225.3213)">
            <path
               d="m 0,0 c 0,1.955 -1.59,3.545 -3.545,3.545 -1.954,0 -3.544,-1.59 -3.544,-3.545 0,-1.955 1.59,-3.545 3.544,-3.545 C -1.59,-3.545 0,-1.955 0,0 m -10.127,0 c 0,3.631 2.952,6.582 6.582,6.582 3.631,0 6.582,-2.951 6.582,-6.582 0,-3.631 -2.951,-6.582 -6.582,-6.582 -3.63,0 -6.582,2.951 -6.582,6.582"
               style="fill: #ffffff; fill-opacity: 0.2; fill-rule: nonzero; stroke: none"
               id="path3564" />
          </g>
          <g
             id="g3566"
             transform="translate(447.6869,76.3072)">
            <path
               d="m 0,0 c 0,1.952 -1.59,3.542 -3.545,3.542 -1.952,0 -3.541,-1.59 -3.541,-3.542 0,-1.955 1.589,-3.545 3.541,-3.545 C -1.59,-3.545 0,-1.955 0,0 m -10.124,0 c 0,3.628 2.952,6.579 6.579,6.579 3.631,0 6.582,-2.951 6.582,-6.579 0,-3.631 -2.951,-6.582 -6.582,-6.582 -3.627,0 -6.579,2.951 -6.579,6.582"
               style="fill: #ffffff; fill-opacity: 0.2; fill-rule: nonzero; stroke: none"
               id="path3568" />
          </g>
          <g
             id="g3582"
             transform="translate(540.1103,79.4307)">
            <path
               d="m 0,0 c 0,1.955 -1.59,3.545 -3.545,3.545 -1.954,0 -3.544,-1.59 -3.544,-3.545 0,-1.955 1.59,-3.545 3.544,-3.545 C -1.59,-3.545 0,-1.955 0,0 m -10.127,0 c 0,3.631 2.952,6.582 6.582,6.582 3.631,0 6.582,-2.951 6.582,-6.582 0,-3.631 -2.951,-6.582 -6.582,-6.582 -3.63,0 -6.582,2.951 -6.582,6.582"
               style="fill: #ffffff; fill-opacity: 0.2; fill-rule: nonzero; stroke: none"
               id="path3584" />
          </g>
          <g
             id="g3586"
             transform="translate(781.7318,87.5939)">
            <path
               d="m 0,0 c 0,1.955 -1.59,3.545 -3.545,3.545 -1.954,0 -3.544,-1.59 -3.544,-3.545 0,-1.955 1.59,-3.545 3.544,-3.545 C -1.59,-3.545 0,-1.955 0,0 m -10.127,0 c 0,3.631 2.952,6.582 6.582,6.582 3.631,0 6.582,-2.951 6.582,-6.582 0,-3.631 -2.951,-6.582 -6.582,-6.582 -3.63,0 -6.582,2.951 -6.582,6.582"
               style="fill: #ffffff; fill-opacity: 0.2; fill-rule: nonzero; stroke: none"
               id="path3588" />
          </g>
          <g
             id="g3590"
             transform="translate(579.375,364.0039)">
            <path
               d="m 0,0 c 0,1.955 -1.59,3.545 -3.545,3.545 -1.952,0 -3.541,-1.59 -3.541,-3.545 0,-1.955 1.589,-3.545 3.541,-3.545 C -1.59,-3.545 0,-1.955 0,0 m -10.124,0 c 0,3.631 2.952,6.582 6.579,6.582 3.631,0 6.582,-2.951 6.582,-6.582 0,-3.631 -2.951,-6.582 -6.582,-6.582 -3.627,0 -6.579,2.951 -6.579,6.582"
               style="fill: #ffffff; fill-opacity: 0.2; fill-rule: nonzero; stroke: none"
               id="path3592" />
          </g>
        
          <g
             id="g3598"
             transform="translate(588.0454,633.3898)">
            <path
               d="m 0,0 c 0,1.955 -1.59,3.545 -3.545,3.545 -1.954,0 -3.544,-1.59 -3.544,-3.545 0,-1.955 1.59,-3.545 3.544,-3.545 C -1.59,-3.545 0,-1.955 0,0 m -10.127,0 c 0,3.631 2.952,6.582 6.582,6.582 3.631,0 6.582,-2.951 6.582,-6.582 0,-3.631 -2.951,-6.582 -6.582,-6.582 -3.63,0 -6.582,2.951 -6.582,6.582"
               style="fill: #ffffff; fill-opacity: 0.2; fill-rule: nonzero; stroke: none"
               id="path3600" />
          </g>
       
          
       
          <g
             id="g3622"
             transform="translate(492.6172,705.5475)">
            <path
               d="M 0,0 V 13.651 H 1.519 V 0.629 l 28.776,-28.776 -1.074,-1.074 z"
               style="fill: #ffffff; fill-opacity: 0.2; fill-rule: nonzero; stroke: none"
               id="path3624" />
          </g>
          <g
             id="g3626"
             transform="translate(529.5266,673.8261)">
            <path
               d="m 0,0 c 0,2.373 -1.931,4.304 -4.304,4.304 -2.373,0 -4.304,-1.931 -4.304,-4.304 0,-2.373 1.931,-4.304 4.304,-4.304 C -1.931,-4.304 0,-2.373 0,0 m -10.127,0 c 0,3.21 2.613,5.823 5.823,5.823 3.209,0 5.823,-2.613 5.823,-5.823 0,-3.209 -2.614,-5.823 -5.823,-5.823 -3.21,0 -5.823,2.614 -5.823,5.823"
               style="fill: #ffffff; fill-opacity: 0.2; fill-rule: nonzero; stroke: none"
               id="path3628" />
          </g>
          <g
             id="g3630"
             transform="translate(497.6806,724.0067)">
            <path
               d="m 0,0 c 0,2.373 -1.931,4.304 -4.304,4.304 -2.373,0 -4.304,-1.931 -4.304,-4.304 0,-2.373 1.931,-4.301 4.304,-4.301 C -1.931,-4.301 0,-2.373 0,0 m -10.127,0 c 0,3.21 2.613,5.823 5.823,5.823 3.209,0 5.823,-2.613 5.823,-5.823 0,-3.21 -2.614,-5.82 -5.823,-5.82 -3.21,0 -5.823,2.61 -5.823,5.82"
               style="fill: #ffffff; fill-opacity: 0.2; fill-rule: nonzero; stroke: none"
               id="path3632" />
          </g>
         
       
      
        </g>
      </g>
    </g>
  </g>
</svg>
